<svg width="398" height="132" viewBox="0 0 398 132" fill="none" xmlns="http://www.w3.org/2000/svg">
<g clip-path="url(#clip0_301_4)">
<path d="M20.4742 95.1C20.4742 99.5667 18.1409 101.8 13.4742 101.8C11.2076 101.8 9.40755 101.233 8.07422 100.1C6.74089 98.9667 6.07422 97.3 6.07422 95.1V32.6C6.07422 27.4 8.50755 24.8 13.3742 24.8C18.1742 24.8 20.5742 27.4 20.5742 32.6V43.3C20.5742 45.1667 20.3742 46.9667 19.9742 48.7C19.5742 50.4333 18.9076 52.2333 17.9742 54.1C19.1076 52.7 20.6076 51.7 22.4742 51.1C24.3409 50.5 26.5076 50.2 28.9742 50.2C33.3742 50.2 37.2076 51.0667 40.4742 52.8C43.7409 54.5333 46.2742 56.9667 48.0742 60.1C49.9409 63.1667 50.8742 66.8333 50.8742 71.1V95.1C50.8742 99.5667 48.5409 101.8 43.8742 101.8C41.6076 101.8 39.8076 101.233 38.4742 100.1C37.1409 98.9667 36.4742 97.3 36.4742 95.1V71.7C36.4742 68.5667 35.7409 66.2 34.2742 64.6C32.8742 63 30.9076 62.2 28.3742 62.2C25.9076 62.2 23.9742 63.0333 22.5742 64.7C21.1742 66.3 20.4742 68.6333 20.4742 71.7V95.1ZM67.4453 101.8C66.3786 101.8 65.212 101.567 63.9453 101.1C62.7453 100.7 61.6786 100 60.7453 99C59.8786 98 59.4453 96.7333 59.4453 95.2C59.4453 92.8 60.5786 89.9 62.8453 86.5C65.1786 83.0333 68.3453 79.4 72.3453 75.6L61.7453 62C61.2786 61.3333 60.812 60.6 60.3453 59.8C59.9453 58.9333 59.7453 58.0667 59.7453 57.2C59.7453 56.2667 59.9453 55.3333 60.3453 54.4C60.812 53.4 61.5786 52.4333 62.6453 51.5C63.3786 50.9 64.112 50.5 64.8453 50.3C65.5786 50.0333 66.2786 49.9 66.9453 49.9C68.212 49.9 69.3453 50.2 70.3453 50.8C71.412 51.3333 72.212 51.9667 72.7453 52.7L83.2453 66.1C84.7786 64.3 86.112 62.4 87.2453 60.4C88.4453 58.4 89.412 56.5667 90.1453 54.9C90.812 53.3667 91.6786 52.1667 92.7453 51.3C93.812 50.3667 95.0786 49.9 96.5453 49.9C98.5453 49.9 100.345 50.5 101.945 51.7C103.545 52.8333 104.345 54.5667 104.345 56.9C104.345 59.3667 103.312 62.2 101.245 65.4C99.2453 68.6 96.1453 72.2333 91.9453 76.3L102.945 89.8C103.479 90.4 103.912 91.1333 104.245 92C104.645 92.8 104.845 93.6667 104.845 94.6C104.845 95.4667 104.612 96.4 104.145 97.4C103.745 98.3333 103.045 99.2667 102.045 100.2C101.379 100.8 100.679 101.2 99.9453 101.4C99.212 101.667 98.4786 101.8 97.7453 101.8C96.4786 101.8 95.3453 101.5 94.3453 100.9C93.3453 100.3 92.5453 99.6667 91.9453 99L80.8453 85.4C79.4453 87.0667 78.0453 89.0333 76.6453 91.3C75.312 93.5667 74.1786 95.7 73.2453 97.7C72.6453 99.0333 71.8786 100.067 70.9453 100.8C70.0786 101.467 68.912 101.8 67.4453 101.8Z" fill="#FE640B"/>
<path d="M135.184 101.8C127.851 101.8 122.051 99.4667 117.784 94.8C113.584 90.1333 111.484 83.3 111.484 74.3C111.484 68.3 112.351 63.5333 114.084 60C115.818 56.4667 118.218 53.9667 121.284 52.5C124.418 50.9667 127.951 50.2 131.884 50.2C135.418 50.2 138.284 50.6333 140.484 51.5C142.684 52.3667 144.418 53.8333 145.684 55.9C145.218 54.5 144.851 53.2 144.584 52C144.384 50.7333 144.218 49.2667 144.084 47.6C144.018 45.9333 143.984 43.8 143.984 41.2V32.6C143.984 27.4 146.218 24.8 150.684 24.8C155.551 24.8 157.984 27.4 157.984 32.6V74.9C157.984 83.9 155.984 90.6333 151.984 95.1C147.984 99.5667 142.384 101.8 135.184 101.8ZM134.484 89.8C137.284 89.8 139.451 88.8 140.984 86.8C142.584 84.8 143.384 81.0667 143.384 75.6C143.384 71.9333 143.018 69.1667 142.284 67.3C141.618 65.3667 140.618 64.0333 139.284 63.3C137.951 62.5667 136.351 62.2 134.484 62.2C132.618 62.2 131.018 62.5667 129.684 63.3C128.351 64.0333 127.318 65.3667 126.584 67.3C125.918 69.1667 125.584 71.9333 125.584 75.6C125.584 81.0667 126.351 84.8 127.884 86.8C129.484 88.8 131.684 89.8 134.484 89.8ZM190.774 101.8C186.374 101.8 182.508 100.9 179.174 99.1C175.841 97.3 173.241 94.7667 171.374 91.5C169.574 88.2333 168.674 84.4333 168.674 80.1V56.7C168.674 52.1667 171.074 49.9 175.874 49.9C180.674 49.9 183.074 52.1667 183.074 56.7V79.9C183.074 83.0333 183.741 85.4667 185.074 87.2C186.408 88.9333 188.308 89.8 190.774 89.8C193.241 89.8 195.141 88.9333 196.474 87.2C197.808 85.4667 198.474 83.0333 198.474 79.9V56.7C198.474 52.1667 200.874 49.9 205.674 49.9C210.474 49.9 212.874 52.1667 212.874 56.7V80.1C212.874 84.4333 211.941 88.2333 210.074 91.5C208.274 94.7667 205.708 97.3 202.374 99.1C199.108 100.9 195.241 101.8 190.774 101.8ZM240.252 101.8C227.719 101.8 221.452 99.0333 221.452 93.5C221.452 91.7667 221.919 90.4 222.852 89.4C223.786 88.4 225.019 87.9 226.552 87.9C227.219 87.9 227.852 88 228.452 88.2C229.119 88.3333 230.386 88.7 232.252 89.3C233.052 89.5667 234.119 89.8333 235.452 90.1C236.786 90.3667 238.086 90.5 239.352 90.5C241.752 90.5 243.452 90.2 244.452 89.6C245.452 89 245.952 88 245.952 86.6C245.952 85.4667 245.686 84.6 245.152 84C244.619 83.3333 243.486 82.7 241.752 82.1C240.019 81.5 237.319 80.6667 233.652 79.6C230.319 78.6667 227.619 77 225.552 74.6C223.552 72.1333 222.552 69.1 222.552 65.5C222.552 60.4333 224.386 56.5667 228.052 53.9C231.719 51.2333 236.752 49.9 243.152 49.9C247.952 49.9 251.719 50.5667 254.452 51.9C257.186 53.2333 258.552 55.1667 258.552 57.7C258.552 59.3 258.086 60.6333 257.152 61.7C256.219 62.7667 254.952 63.3 253.352 63.3C252.686 63.3 251.886 63.2 250.952 63C250.086 62.8 249.019 62.5333 247.752 62.2C246.819 61.8667 245.819 61.6 244.752 61.4C243.752 61.2 242.686 61.1 241.552 61.1C238.352 61.1 236.752 62.2333 236.752 64.5C236.752 65.8333 237.386 66.9667 238.652 67.9C239.919 68.7667 242.352 69.7333 245.952 70.8C250.886 72.2667 254.519 74.2333 256.852 76.7C259.186 79.1 260.352 82.3 260.352 86.3C260.352 90.9667 258.552 94.7333 254.952 97.6C251.419 100.4 246.519 101.8 240.252 101.8ZM291.667 101.8C285.467 101.8 280.867 100.333 277.867 97.4C274.934 94.4667 273.467 89.9667 273.467 83.9V63.1H270.867C266.334 63.1 264.067 61.0667 264.067 57C264.067 53 266.334 51 270.867 51H273.467V40.2C273.467 38 274.134 36.2 275.467 34.8C276.867 33.4 278.667 32.7 280.867 32.7C283.001 32.7 284.701 33.3667 285.967 34.7C287.234 35.9667 287.867 37.7333 287.867 40V44.9C287.867 47.3667 287.467 49.4 286.667 51H296.167C300.701 51 302.967 53 302.967 57C302.967 61.0667 300.701 63.1 296.167 63.1H287.867V84.2C287.867 86.2 288.101 87.6333 288.567 88.5C289.034 89.3 289.801 89.7 290.867 89.7C292.267 89.7 293.301 89.6 293.967 89.4C294.701 89.1333 295.601 89 296.667 89C298.467 89 299.901 89.3333 300.967 90C302.034 90.6 302.567 91.8667 302.567 93.8C302.567 96.5333 301.701 98.5667 299.967 99.9C298.234 101.167 295.467 101.8 291.667 101.8ZM335.531 101.8C328.865 101.8 323.631 100.7 319.831 98.5C316.098 96.3 313.431 93.2667 311.831 89.4C310.298 85.5333 309.531 81.1 309.531 76.1C309.531 66.9 311.565 60.3 315.631 56.3C319.698 52.2333 325.165 50.2 332.031 50.2C336.165 50.2 339.831 50.9 343.031 52.3C346.231 53.7 348.731 55.7 350.531 58.3C352.331 60.8333 353.231 63.9333 353.231 67.6C353.231 78.2667 345.631 83.6 330.431 83.6H324.631C325.165 85.6667 326.031 87.3 327.231 88.5C328.498 89.6333 330.698 90.2 333.831 90.2C335.565 90.2 336.965 90.1 338.031 89.9C339.098 89.7 340.098 89.5 341.031 89.3C342.031 89.1 343.165 89 344.431 89C346.231 89 347.665 89.3333 348.731 90C349.798 90.6 350.331 91.8667 350.331 93.8C350.331 96.5333 349.131 98.5667 346.731 99.9C344.398 101.167 340.665 101.8 335.531 101.8ZM323.931 76.2C324.465 75.4667 325.065 75 325.731 74.8C326.398 74.5333 327.431 74.4 328.831 74.4C332.765 74.4 335.465 74.0333 336.931 73.3C338.465 72.5 339.231 71.1 339.231 69.1C339.231 66.5667 338.531 64.6333 337.131 63.3C335.731 61.9 333.965 61.2 331.831 61.2C329.365 61.2 327.431 62.2333 326.031 64.3C324.631 66.3667 323.931 70.3333 323.931 76.2ZM369.527 101.8C364.727 101.8 362.327 99.5333 362.327 95V57.1C362.327 52.5 364.727 50.2 369.527 50.2C371.927 50.2 373.66 50.7333 374.727 51.8C375.793 52.8 376.327 54.4667 376.327 56.8C377.527 54.6 379.227 52.9667 381.427 51.9C383.693 50.7667 386.327 50.2 389.327 50.2C395.06 50.2 397.927 52.7 397.927 57.7C397.927 59.5667 397.227 60.9667 395.827 61.9C394.427 62.8333 392.127 63.3 388.927 63.3C385.793 63.3 383.327 63.6 381.527 64.2C379.727 64.7333 378.46 65.7667 377.727 67.3C377.06 68.7667 376.727 70.9 376.727 73.7V95C376.727 99.5333 374.327 101.8 369.527 101.8Z" fill="#C6D0F5"/>
</g>
<defs>
<clipPath id="clip0_301_4">
<rect width="398" height="132" fill="white"/>
</clipPath>
</defs>
</svg>
